<svg xmlns="http://www.w3.org/2000/svg" viewBox="0 0 320 240"><ellipse cx="160" cy="205" rx="125" ry="15" fill="#d9dece"/><path d="M40 165l148-77 100 52-149 79z" fill="#5f7b68"/><path d="M40 165v9l99 52v-9z" fill="#3d5c49"/><path d="M139 217l149-79v9l-149 79z" fill="#496950"/><path d="M54 172.0l148-78" stroke="#9eaf9b" stroke-width="4"/><path d="M67 178.85l148-78" stroke="#9eaf9b" stroke-width="4"/><path d="M80 185.7l148-78" stroke="#9eaf9b" stroke-width="4"/><path d="M93 192.55l148-78" stroke="#9eaf9b" stroke-width="4"/><path d="M106 199.4l148-78" stroke="#9eaf9b" stroke-width="4"/><path d="M119 206.25l148-78" stroke="#9eaf9b" stroke-width="4"/><path d="M132 213.1l148-78" stroke="#9eaf9b" stroke-width="4"/><path d="M40 142l148-77 100 52-149 79z" fill="#5f7b68"/><path d="M40 142v9l99 52v-9z" fill="#3d5c49"/><path d="M139 194l149-79v9l-149 79z" fill="#496950"/><path d="M54 149.0l148-78" stroke="#9eaf9b" stroke-width="4"/><path d="M67 155.85l148-78" stroke="#9eaf9b" stroke-width="4"/><path d="M80 162.7l148-78" stroke="#9eaf9b" stroke-width="4"/><path d="M93 169.55l148-78" stroke="#9eaf9b" stroke-width="4"/><path d="M106 176.4l148-78" stroke="#9eaf9b" stroke-width="4"/><path d="M119 183.25l148-78" stroke="#9eaf9b" stroke-width="4"/><path d="M132 190.1l148-78" stroke="#9eaf9b" stroke-width="4"/><path d="M40 119l148-77 100 52-149 79z" fill="#5f7b68"/><path d="M40 119v9l99 52v-9z" fill="#3d5c49"/><path d="M139 171l149-79v9l-149 79z" fill="#496950"/><path d="M54 126.0l148-78" stroke="#9eaf9b" stroke-width="4"/><path d="M67 132.85l148-78" stroke="#9eaf9b" stroke-width="4"/><path d="M80 139.7l148-78" stroke="#9eaf9b" stroke-width="4"/><path d="M93 146.55l148-78" stroke="#9eaf9b" stroke-width="4"/><path d="M106 153.4l148-78" stroke="#9eaf9b" stroke-width="4"/><path d="M119 160.25l148-78" stroke="#9eaf9b" stroke-width="4"/><path d="M132 167.1l148-78" stroke="#9eaf9b" stroke-width="4"/></svg>